<svg width="28" height="28" viewBox="0 0 28 28" fill="none" xmlns="http://www.w3.org/2000/svg">
<path d="M26.25 6.125V21.875C26.25 22.1071 26.1578 22.3296 25.9937 22.4937C25.8296 22.6578 25.6071 22.75 25.375 22.75H17.5C16.8049 22.75 16.1383 23.0257 15.6462 23.5165C15.1541 24.0074 14.8767 24.6734 14.875 25.3684C14.8785 25.5471 14.8265 25.7224 14.7262 25.8703C14.6259 26.0182 14.4823 26.1314 14.315 26.1942C14.1822 26.2455 14.0389 26.2635 13.8976 26.2469C13.7562 26.2302 13.6211 26.1793 13.5038 26.0986C13.3866 26.0179 13.2908 25.9098 13.2248 25.7837C13.1588 25.6576 13.1245 25.5173 13.125 25.375C13.125 24.6788 12.8484 24.0111 12.3562 23.5188C11.8639 23.0266 11.1962 22.75 10.5 22.75H2.625C2.39294 22.75 2.17038 22.6578 2.00628 22.4937C1.84219 22.3296 1.75 22.1071 1.75 21.875V6.125C1.75 5.89294 1.84219 5.67038 2.00628 5.50628C2.17038 5.34219 2.39294 5.25 2.625 5.25H9.625C10.5533 5.25 11.4435 5.61875 12.0999 6.27513C12.7563 6.9315 13.125 7.82174 13.125 8.75V18.3455C13.122 18.5713 13.2045 18.7899 13.3561 18.9573C13.5077 19.1247 13.717 19.2285 13.942 19.2478C14.0617 19.2558 14.1818 19.239 14.2947 19.1986C14.4077 19.1582 14.5111 19.095 14.5986 19.013C14.6861 18.9309 14.7558 18.8317 14.8033 18.7216C14.8509 18.6115 14.8753 18.4928 14.875 18.3728V8.75C14.875 7.82174 15.2437 6.9315 15.9001 6.27513C16.5565 5.61875 17.4467 5.25 18.375 5.25H25.375C25.6071 5.25 25.8296 5.34219 25.9937 5.50628C26.1578 5.67038 26.25 5.89294 26.25 6.125Z" fill="#966A0D"/>
</svg>
