<svg width="28" height="28" viewBox="0 0 28 28" fill="none" xmlns="http://www.w3.org/2000/svg">
<path d="M7.01338 16.166C7.01635 16.2253 7.00723 16.2846 6.98657 16.3402C6.96592 16.3958 6.93416 16.4467 6.89324 16.4896C6.85231 16.5326 6.80307 16.5668 6.74852 16.5901C6.69396 16.6135 6.63522 16.6255 6.57588 16.6254H1.75026C1.55276 16.6257 1.36098 16.5592 1.20609 16.4367C1.05119 16.3141 0.942307 16.1428 0.897131 15.9506C0.869001 15.819 0.870298 15.6828 0.900929 15.5518C0.93156 15.4207 0.990768 15.2981 1.07432 15.1926C1.8463 14.1688 2.87057 13.3627 4.04713 12.8531C3.53058 12.3821 3.1344 11.7942 2.89178 11.1387C2.64915 10.4831 2.56714 9.77893 2.65261 9.08515C2.73809 8.39138 2.98856 7.72818 3.38305 7.15111C3.77754 6.57404 4.30456 6.0999 4.91998 5.76839C5.53539 5.43689 6.22128 5.25767 6.9202 5.24575C7.61912 5.23384 8.31072 5.38957 8.93708 5.6999C9.56344 6.01023 10.1063 6.46614 10.5203 7.02942C10.9342 7.59271 11.2071 8.24698 11.3162 8.93744C11.3303 9.03029 11.3136 9.1252 11.2688 9.20773C11.224 9.29026 11.1535 9.35589 11.0679 9.39463C9.85428 9.9557 8.82645 10.8522 8.10572 11.9784C7.38498 13.1045 7.00141 14.4134 7.00026 15.7504C7.00026 15.8904 7.00026 16.0282 7.01338 16.166ZM26.9196 15.1915C26.1494 14.1689 25.1275 13.3633 23.9534 12.8531C24.4699 12.3821 24.8661 11.7942 25.1087 11.1387C25.3514 10.4831 25.4334 9.77893 25.3479 9.08515C25.2624 8.39138 25.012 7.72818 24.6175 7.15111C24.223 6.57404 23.696 6.0999 23.0805 5.76839C22.4651 5.43689 21.7792 5.25767 21.0803 5.24575C20.3814 5.23384 19.6898 5.38957 19.0634 5.6999C18.4371 6.01023 17.8942 6.46614 17.4803 7.02942C17.0663 7.59271 16.7934 8.24698 16.6843 8.93744C16.6702 9.03029 16.6869 9.1252 16.7317 9.20773C16.7765 9.29026 16.8471 9.35589 16.9326 9.39463C18.1462 9.9557 19.1741 10.8522 19.8948 11.9784C20.6155 13.1045 20.9991 14.4134 21.0003 15.7504C21.0003 15.8904 21.0003 16.0282 20.9871 16.166C20.9842 16.2253 20.9933 16.2846 21.0139 16.3402C21.0346 16.3958 21.0663 16.4467 21.1073 16.4896C21.1482 16.5326 21.1974 16.5668 21.252 16.5901C21.3066 16.6135 21.3653 16.6255 21.4246 16.6254H26.2503C26.4477 16.6257 26.6395 16.5592 26.7944 16.4367C26.9493 16.3141 27.0582 16.1428 27.1034 15.9506C27.1317 15.8187 27.1304 15.6823 27.0995 15.551C27.0687 15.4197 27.0091 15.297 26.9251 15.1915H26.9196ZM17.1853 19.9143C18.0565 19.2471 18.6967 18.3236 19.016 17.2737C19.3353 16.2238 19.3176 15.1003 18.9653 14.061C18.6131 13.0217 17.944 12.1189 17.0521 11.4795C16.1603 10.8401 15.0905 10.4962 13.9931 10.4962C12.8958 10.4962 11.826 10.8401 10.9341 11.4795C10.0423 12.1189 9.37323 13.0217 9.02098 14.061C8.66872 15.1003 8.65099 16.2238 8.97028 17.2737C9.28956 18.3236 9.92981 19.2471 10.801 19.9143C9.25506 20.5842 7.96414 21.7314 7.11729 23.1879C7.04048 23.3209 7.00005 23.4718 7.00006 23.6255C7.00007 23.7791 7.04052 23.93 7.11734 24.063C7.19416 24.196 7.30464 24.3065 7.43769 24.3833C7.57073 24.46 7.72164 24.5004 7.87526 24.5004H20.1253C20.2789 24.5004 20.4298 24.46 20.5628 24.3833C20.6959 24.3065 20.8064 24.196 20.8832 24.063C20.96 23.93 21.0004 23.7791 21.0005 23.6255C21.0005 23.4718 20.96 23.3209 20.8832 23.1879C20.0346 21.7304 18.7412 20.5831 17.1929 19.9143H17.1853Z" fill="#966A0D"/>
</svg>
