<svg width="16" height="16" viewBox="0 0 16 16" fill="none" xmlns="http://www.w3.org/2000/svg">
<path d="M12.4997 9.49999C12.0577 9.49976 11.6283 9.64665 11.2791 9.91749L9.83468 8.79249C9.94372 8.54252 9.9999 8.27271 9.99968 7.99999C9.99968 7.95374 9.99968 7.90749 9.99468 7.86187L10.8216 7.58624C11.0832 7.98971 11.4814 8.28541 11.9432 8.4192C12.4051 8.55299 12.8997 8.5159 13.3364 8.31472C13.7732 8.11354 14.1228 7.76175 14.3213 7.32378C14.5198 6.88581 14.5539 6.39099 14.4173 5.92996C14.2807 5.46892 13.9825 5.07254 13.5775 4.81341C13.1724 4.55429 12.6875 4.44978 12.2117 4.51901C11.7359 4.58825 11.3009 4.82661 10.9865 5.19042C10.6721 5.55423 10.4992 6.01914 10.4997 6.49999C10.4997 6.54624 10.4997 6.59249 10.5047 6.63812L9.67781 6.91374C9.49654 6.63351 9.24803 6.4031 8.95492 6.2435C8.66182 6.0839 8.33343 6.00019 7.99968 5.99999C7.88933 6.00022 7.77917 6.00942 7.67031 6.02749L7.24281 5.06249C7.61194 4.76755 7.86474 4.35144 7.95638 3.88792C8.04803 3.4244 7.9726 2.94339 7.74348 2.53017C7.51436 2.11694 7.14634 1.79818 6.70464 1.63037C6.26295 1.46257 5.77611 1.45657 5.33041 1.61342C4.88471 1.77028 4.50894 2.07987 4.26969 2.48732C4.03045 2.89477 3.94319 3.37377 4.02337 3.83941C4.10356 4.30505 4.34601 4.72727 4.70776 5.03122C5.06951 5.33518 5.52719 5.50125 5.99968 5.49999C6.11004 5.49976 6.22019 5.49057 6.32906 5.47249L6.75656 6.43499C6.39403 6.72192 6.14241 7.12585 6.04472 7.57775C5.94702 8.02964 6.00931 8.50144 6.22093 8.91249L4.61406 10.34C4.20967 10.0674 3.71974 9.9516 3.2361 10.0144C2.75246 10.0771 2.30831 10.3141 1.98691 10.6809C1.66551 11.0478 1.48892 11.5192 1.49024 12.0069C1.49156 12.4946 1.67071 12.965 1.99409 13.3301C2.31747 13.6952 2.7629 13.9298 3.24687 13.9899C3.73085 14.0501 4.22014 13.9316 4.62304 13.6568C5.02595 13.382 5.3148 12.9697 5.43545 12.4972C5.5561 12.0246 5.50027 11.5243 5.27843 11.09L6.88531 9.66249C7.23322 9.89675 7.64614 10.0154 8.06534 10.0014C8.48454 9.98753 8.88869 9.8418 9.22031 9.58499L10.6647 10.71C10.556 10.9592 10.4998 11.2281 10.4997 11.5C10.4997 11.8956 10.617 12.2822 10.8367 12.6111C11.0565 12.94 11.3689 13.1964 11.7343 13.3478C12.0998 13.4991 12.5019 13.5387 12.8899 13.4616C13.2778 13.3844 13.6342 13.1939 13.9139 12.9142C14.1936 12.6345 14.3841 12.2781 14.4613 11.8902C14.5384 11.5022 14.4988 11.1001 14.3474 10.7346C14.1961 10.3692 13.9397 10.0568 13.6108 9.83705C13.2819 9.61729 12.8952 9.49999 12.4997 9.49999ZM12.4997 5.49999C12.6975 5.49999 12.8908 5.55864 13.0553 5.66852C13.2197 5.7784 13.3479 5.93458 13.4236 6.11731C13.4992 6.30004 13.5191 6.5011 13.4805 6.69508C13.4419 6.88906 13.3466 7.06725 13.2068 7.2071C13.0669 7.34695 12.8888 7.44219 12.6948 7.48078C12.5008 7.51936 12.2997 7.49956 12.117 7.42387C11.9343 7.34818 11.7781 7.22001 11.6682 7.05556C11.5583 6.89111 11.4997 6.69777 11.4997 6.49999C11.4997 6.23478 11.605 5.98042 11.7926 5.79289C11.9801 5.60535 12.2345 5.49999 12.4997 5.49999ZM4.99968 3.49999C4.99968 3.30221 5.05833 3.10887 5.16821 2.94442C5.27809 2.77997 5.43427 2.6518 5.617 2.57611C5.79972 2.50043 6.00079 2.48062 6.19477 2.51921C6.38875 2.55779 6.56694 2.65303 6.70679 2.79289C6.84664 2.93274 6.94188 3.11092 6.98047 3.3049C7.01905 3.49888 6.99925 3.69995 6.92356 3.88268C6.84787 4.0654 6.7197 4.22158 6.55525 4.33146C6.3908 4.44134 6.19746 4.49999 5.99968 4.49999C5.73447 4.49999 5.48011 4.39464 5.29258 4.2071C5.10504 4.01956 4.99968 3.76521 4.99968 3.49999ZM3.49968 13C3.3019 13 3.10856 12.9413 2.94411 12.8315C2.77966 12.7216 2.65149 12.5654 2.5758 12.3827C2.50011 12.2 2.48031 11.9989 2.5189 11.8049C2.55748 11.6109 2.65272 11.4327 2.79258 11.2929C2.93243 11.153 3.11061 11.0578 3.30459 11.0192C3.49857 10.9806 3.69964 11.0004 3.88237 11.0761C4.06509 11.1518 4.22127 11.28 4.33115 11.4444C4.44103 11.6089 4.49968 11.8022 4.49968 12C4.49968 12.2652 4.39433 12.5196 4.20679 12.7071C4.01925 12.8946 3.7649 13 3.49968 13ZM12.4997 12.5C12.3019 12.5 12.1086 12.4413 11.9441 12.3315C11.7797 12.2216 11.6515 12.0654 11.5758 11.8827C11.5001 11.7 11.4803 11.4989 11.5189 11.3049C11.5575 11.1109 11.6527 10.9327 11.7926 10.7929C11.9324 10.653 12.1106 10.5578 12.3046 10.5192C12.4986 10.4806 12.6996 10.5004 12.8824 10.5761C13.0651 10.6518 13.2213 10.78 13.3312 10.9444C13.441 11.1089 13.4997 11.3022 13.4997 11.5C13.4997 11.7652 13.3943 12.0196 13.2068 12.2071C13.0193 12.3946 12.7649 12.5 12.4997 12.5Z" fill="#FCFBFC"/>
</svg>
