<svg width="28" height="28" viewBox="0 0 28 28" fill="none" xmlns="http://www.w3.org/2000/svg">
<path d="M12.0833 23.8544L9.9578 25.6369C9.64595 25.8988 9.173 25.815 8.9695 25.4626L5.41013 19.3001L4.61024 17.9132C4.45102 17.6381 4.5132 17.2877 4.75628 17.0842L5.76907 16.2343C6.01308 16.0299 6.07433 15.6804 5.91511 15.4043L0.17091 5.45531C-0.0815828 5.01816 0.234034 4.47266 0.738077 4.47266H3.57389C3.80754 4.47266 4.02423 4.59796 4.14106 4.80052L8.84421 12.9472C9.00343 13.2223 8.94125 13.5728 8.69818 13.7772L7.90113 14.4462C7.65712 14.6506 7.59588 15.0001 7.7551 15.2762L8.55497 16.6611L12.2293 23.0262C12.3885 23.3013 12.3263 23.6518 12.0833 23.8563V23.8544Z" fill="#966A0D"/>
<path d="M21.1816 4.11503C21.4256 4.31948 21.4869 4.66901 21.3276 4.94506L17.6213 11.3648C17.4178 11.7172 16.9448 11.801 16.633 11.5391L14.4199 9.68214C14.1759 9.4777 13.8207 9.4777 13.5776 9.68214L11.3646 11.5391C11.0527 11.801 10.5798 11.7172 10.3763 11.3648L6.66989 4.94506C6.51067 4.66996 6.57286 4.31948 6.81593 4.11503L9.97491 1.46479C12.302 -0.488264 15.6955 -0.488264 18.0236 1.46479L21.1825 4.11503H21.1816Z" fill="#966A0D"/>
<path d="M17.5208 15.756L14.5653 20.8747C14.3129 21.3118 13.6826 21.3118 13.4301 20.8747L10.4746 15.756C10.3154 15.4809 10.3775 15.1305 10.6206 14.927L11.8397 13.9038L13.5761 12.4463C13.8201 12.2419 14.1753 12.2419 14.4184 12.4463L16.1547 13.9038L17.3739 14.927C17.6179 15.1314 17.6791 15.4809 17.5199 15.756H17.5208Z" fill="#966A0D"/>
<path d="M15.9155 23.8544L18.041 25.6369C18.3528 25.8988 18.8258 25.815 19.0293 25.4626L22.5887 19.3001L23.3885 17.9132C23.5478 17.6381 23.4856 17.2877 23.2425 17.0842L22.2297 16.2343C21.9857 16.0299 21.9245 15.6804 22.0837 15.4043L27.8279 5.45531C28.0804 5.01816 27.7648 4.47266 27.2607 4.47266H24.4249C24.1912 4.47266 23.9745 4.59796 23.8577 4.80052L19.1546 12.9472C18.9954 13.2223 19.0576 13.5728 19.3006 13.7772L20.0977 14.4462C20.3417 14.6506 20.4029 15.0001 20.2437 15.2762L19.4438 16.6611L15.7695 23.0262C15.6103 23.3013 15.6724 23.6518 15.9155 23.8563V23.8544Z" fill="#966A0D"/>
<path d="M15.7636 28.0003H12.2344C11.623 28.0003 11.345 27.2362 11.8133 26.8434L13.5779 25.3623C13.8219 25.1579 14.1761 25.1579 14.4202 25.3623L16.1848 26.8434C16.653 27.2362 16.3751 28.0003 15.7636 28.0003Z" fill="#966A0D"/>
</svg>
