<svg width="26" height="28" viewBox="0 0 26 28" fill="none" xmlns="http://www.w3.org/2000/svg">
<g clip-path="url(#clip0_8984_3669)">
<path d="M25.5299 12.5296H19.5954C19.5954 8.88707 16.6428 5.93449 13.0003 5.93449C9.35777 5.93449 6.40519 8.88707 6.40519 12.5296H0.470703C0.470703 5.61006 6.08076 0 13.0003 0C19.9198 0 25.5299 5.61006 25.5299 12.5296Z" fill="#966A0D"/>
<path d="M25.5189 22.0929V27.9997C20.3725 27.9997 15.8128 25.4864 13.0011 21.6209C10.1885 25.4864 5.62889 27.9997 0.482422 27.9997V22.0929C5.76386 22.0929 10.046 17.8107 10.046 12.5293H15.9554C15.9554 17.8107 20.2375 22.0929 25.5189 22.0929Z" fill="#966A0D"/>
</g>
<defs>
<clipPath id="clip0_8984_3669">
<rect width="25.0592" height="28" fill="white" transform="translate(0.470703)"/>
</clipPath>
</defs>
</svg>
