<svg width="28" height="28" viewBox="0 0 28 28" fill="none" xmlns="http://www.w3.org/2000/svg">
<path d="M22.75 3.5H5.25C4.78587 3.5 4.34075 3.68437 4.01256 4.01256C3.68437 4.34075 3.5 4.78587 3.5 5.25V22.75C3.5 23.2141 3.68437 23.6592 4.01256 23.9874C4.34075 24.3156 4.78587 24.5 5.25 24.5H22.75C23.2141 24.5 23.6592 24.3156 23.9874 23.9874C24.3156 23.6592 24.5 23.2141 24.5 22.75V5.25C24.5 4.78587 24.3156 4.34075 23.9874 4.01256C23.6592 3.68437 23.2141 3.5 22.75 3.5ZM7.4375 20.5625C7.17791 20.5625 6.92415 20.4855 6.70831 20.3413C6.49247 20.1971 6.32425 19.9921 6.22491 19.7523C6.12557 19.5124 6.09958 19.2485 6.15022 18.9939C6.20086 18.7393 6.32587 18.5055 6.50942 18.3219C6.69298 18.1384 6.92684 18.0134 7.18144 17.9627C7.43604 17.9121 7.69994 17.9381 7.93977 18.0374C8.1796 18.1367 8.38458 18.305 8.5288 18.5208C8.67302 18.7367 8.75 18.9904 8.75 19.25C8.75 19.5981 8.61172 19.9319 8.36558 20.1781C8.11944 20.4242 7.7856 20.5625 7.4375 20.5625ZM7.4375 15.3125C7.17791 15.3125 6.92415 15.2355 6.70831 15.0913C6.49247 14.9471 6.32425 14.7421 6.22491 14.5023C6.12557 14.2624 6.09958 13.9985 6.15022 13.7439C6.20086 13.4893 6.32587 13.2555 6.50942 13.0719C6.69298 12.8884 6.92684 12.7634 7.18144 12.7127C7.43604 12.6621 7.69994 12.6881 7.93977 12.7874C8.1796 12.8867 8.38458 13.055 8.5288 13.2708C8.67302 13.4867 8.75 13.7404 8.75 14C8.75 14.3481 8.61172 14.6819 8.36558 14.9281C8.11944 15.1742 7.7856 15.3125 7.4375 15.3125ZM7.4375 10.0625C7.17791 10.0625 6.92415 9.98552 6.70831 9.8413C6.49247 9.69708 6.32425 9.4921 6.22491 9.25227C6.12557 9.01244 6.09958 8.74854 6.15022 8.49394C6.20086 8.23934 6.32587 8.00548 6.50942 7.82192C6.69298 7.63837 6.92684 7.51336 7.18144 7.46272C7.43604 7.41208 7.69994 7.43807 7.93977 7.53741C8.1796 7.63675 8.38458 7.80497 8.5288 8.02081C8.67302 8.23665 8.75 8.49041 8.75 8.75C8.75 9.0981 8.61172 9.43194 8.36558 9.67808C8.11944 9.92422 7.7856 10.0625 7.4375 10.0625ZM21 20.125H11.375C11.1429 20.125 10.9204 20.0328 10.7563 19.8687C10.5922 19.7046 10.5 19.4821 10.5 19.25C10.5 19.0179 10.5922 18.7954 10.7563 18.6313C10.9204 18.4672 11.1429 18.375 11.375 18.375H21C21.2321 18.375 21.4546 18.4672 21.6187 18.6313C21.7828 18.7954 21.875 19.0179 21.875 19.25C21.875 19.4821 21.7828 19.7046 21.6187 19.8687C21.4546 20.0328 21.2321 20.125 21 20.125ZM21 14.875H11.375C11.1429 14.875 10.9204 14.7828 10.7563 14.6187C10.5922 14.4546 10.5 14.2321 10.5 14C10.5 13.7679 10.5922 13.5454 10.7563 13.3813C10.9204 13.2172 11.1429 13.125 11.375 13.125H21C21.2321 13.125 21.4546 13.2172 21.6187 13.3813C21.7828 13.5454 21.875 13.7679 21.875 14C21.875 14.2321 21.7828 14.4546 21.6187 14.6187C21.4546 14.7828 21.2321 14.875 21 14.875ZM21 9.625H11.375C11.1429 9.625 10.9204 9.53281 10.7563 9.36872C10.5922 9.20462 10.5 8.98206 10.5 8.75C10.5 8.51794 10.5922 8.29538 10.7563 8.13128C10.9204 7.96719 11.1429 7.875 11.375 7.875H21C21.2321 7.875 21.4546 7.96719 21.6187 8.13128C21.7828 8.29538 21.875 8.51794 21.875 8.75C21.875 8.98206 21.7828 9.20462 21.6187 9.36872C21.4546 9.53281 21.2321 9.625 21 9.625Z" fill="#966A0D"/>
</svg>
