<svg width="36" height="37" viewBox="0 0 36 37" fill="none" xmlns="http://www.w3.org/2000/svg">
<g clip-path="url(#clip0_2004_15740)">
<path d="M36.0004 16.8086H28.9453V20.1913H36.0004V16.8086Z" fill="#1C77F5"/>
<path d="M7.05506 16.8086H0V20.1913H7.05506V16.8086Z" fill="#1C77F5"/>
<path d="M5.16961 0.5H16.3087V4.18798C11.4648 4.71762 7.62176 8.57435 7.1126 13.425H0V5.66961C0 2.81462 2.31462 0.5 5.16961 0.5Z" fill="#1C77F5"/>
<path d="M36.0001 5.66961V13.425H28.8875C28.3783 8.57435 24.5352 4.71762 19.6914 4.18798V0.5H30.8305C33.6854 0.5 36.0001 2.81462 36.0001 5.66961Z" fill="#1C77F5"/>
<path d="M25.361 13.4251C24.9962 12.1697 24.3193 11.048 23.4199 10.1487C22.4133 9.14208 21.1297 8.41541 19.692 8.09157C19.1477 7.96867 18.582 7.9043 18.0006 7.9043C17.4193 7.9043 16.8535 7.96867 16.3093 8.09157C13.5869 8.70412 11.4128 10.7661 10.6403 13.4251C10.4423 14.1049 10.3359 14.8247 10.3359 15.569V21.4311C10.3359 22.1754 10.4423 22.8952 10.6403 23.575C11.0051 24.8304 11.682 25.9521 12.5813 26.8514C13.5879 27.858 14.8715 28.5847 16.3093 28.9085C16.8535 29.0314 17.4193 29.0958 18.0006 29.0958C18.582 29.0958 19.1477 29.0314 19.692 28.9085C22.4143 28.296 24.5885 26.234 25.361 23.575C25.559 22.8952 25.6653 22.1754 25.6653 21.4311V15.569C25.6653 14.8247 25.559 14.1049 25.361 13.4251ZM22.0251 21.6184C22.0251 22.3285 21.8408 22.9957 21.5169 23.575C20.8302 24.808 19.5125 25.6419 18.0006 25.6419C16.8887 25.6419 15.883 25.1913 15.1544 24.4636C14.892 24.2013 14.6657 23.9018 14.4843 23.575C14.1605 22.9957 13.9761 22.3285 13.9761 21.6184V15.3817C13.9761 14.6716 14.1605 14.0044 14.4843 13.4251C15.171 12.1921 16.4887 11.3582 18.0006 11.3582C19.1126 11.3582 20.1182 11.8088 20.8468 12.5365C21.1092 12.7988 21.3355 13.0983 21.5169 13.4251C21.8408 14.0044 22.0251 14.6716 22.0251 15.3817V21.6184Z" fill="#1C77F5"/>
<path d="M30.8305 36.5002H19.6914V32.8122C24.5352 32.2826 28.3783 28.4259 28.8875 23.5752H36.0001V31.3306C36.0001 34.1856 33.6854 36.5002 30.8305 36.5002Z" fill="#1C77F5"/>
<path d="M0 31.3306V23.5752H7.1126C7.62176 28.4259 11.4648 32.2826 16.3087 32.8122V36.5002H5.16961C2.31462 36.5002 0 34.1856 0 31.3306Z" fill="#1C77F5"/>
</g>
<defs>
<clipPath id="clip0_2004_15740">
<rect width="36" height="36" fill="white" transform="translate(0 0.5)"/>
</clipPath>
</defs>
</svg>
