<svg width="17" height="16" viewBox="0 0 17 16" fill="none" xmlns="http://www.w3.org/2000/svg">
<path d="M16.0005 9.5C16.0005 9.63261 15.9478 9.75979 15.854 9.85355C15.7603 9.94732 15.6331 10 15.5005 10H14.5005V11C14.5005 11.1326 14.4478 11.2598 14.354 11.3536C14.2603 11.4473 14.1331 11.5 14.0005 11.5C13.8679 11.5 13.7407 11.4473 13.6469 11.3536C13.5532 11.2598 13.5005 11.1326 13.5005 11V10H12.5005C12.3679 10 12.2407 9.94732 12.1469 9.85355C12.0532 9.75979 12.0005 9.63261 12.0005 9.5C12.0005 9.36739 12.0532 9.24021 12.1469 9.14645C12.2407 9.05268 12.3679 9 12.5005 9H13.5005V8C13.5005 7.86739 13.5532 7.74021 13.6469 7.64645C13.7407 7.55268 13.8679 7.5 14.0005 7.5C14.1331 7.5 14.2603 7.55268 14.354 7.64645C14.4478 7.74021 14.5005 7.86739 14.5005 8V9H15.5005C15.6331 9 15.7603 9.05268 15.854 9.14645C15.9478 9.24021 16.0005 9.36739 16.0005 9.5ZM4.00047 4.5H5.00047V5.5C5.00047 5.63261 5.05315 5.75979 5.14692 5.85355C5.24069 5.94732 5.36787 6 5.50047 6C5.63308 6 5.76026 5.94732 5.85403 5.85355C5.9478 5.75979 6.00047 5.63261 6.00047 5.5V4.5H7.00047C7.13308 4.5 7.26026 4.44732 7.35403 4.35355C7.4478 4.25979 7.50047 4.13261 7.50047 4C7.50047 3.86739 7.4478 3.74021 7.35403 3.64645C7.26026 3.55268 7.13308 3.5 7.00047 3.5H6.00047V2.5C6.00047 2.36739 5.9478 2.24021 5.85403 2.14645C5.76026 2.05268 5.63308 2 5.50047 2C5.36787 2 5.24069 2.05268 5.14692 2.14645C5.05315 2.24021 5.00047 2.36739 5.00047 2.5V3.5H4.00047C3.86787 3.5 3.74069 3.55268 3.64692 3.64645C3.55315 3.74021 3.50047 3.86739 3.50047 4C3.50047 4.13261 3.55315 4.25979 3.64692 4.35355C3.74069 4.44732 3.86787 4.5 4.00047 4.5ZM12.0005 12H11.5005V11.5C11.5005 11.3674 11.4478 11.2402 11.354 11.1464C11.2603 11.0527 11.1331 11 11.0005 11C10.8679 11 10.7407 11.0527 10.6469 11.1464C10.5532 11.2402 10.5005 11.3674 10.5005 11.5V12H10.0005C9.86787 12 9.74069 12.0527 9.64692 12.1464C9.55315 12.2402 9.50047 12.3674 9.50047 12.5C9.50047 12.6326 9.55315 12.7598 9.64692 12.8536C9.74069 12.9473 9.86787 13 10.0005 13H10.5005V13.5C10.5005 13.6326 10.5532 13.7598 10.6469 13.8536C10.7407 13.9473 10.8679 14 11.0005 14C11.1331 14 11.2603 13.9473 11.354 13.8536C11.4478 13.7598 11.5005 13.6326 11.5005 13.5V13H12.0005C12.1331 13 12.2603 12.9473 12.354 12.8536C12.4478 12.7598 12.5005 12.6326 12.5005 12.5C12.5005 12.3674 12.4478 12.2402 12.354 12.1464C12.2603 12.0527 12.1331 12 12.0005 12ZM14.2073 5L5.50047 13.7069C5.31296 13.8943 5.0587 13.9995 4.7936 13.9995C4.5285 13.9995 4.27424 13.8943 4.08672 13.7069L2.79297 12.4144C2.70009 12.3215 2.62641 12.2113 2.57614 12.0899C2.52587 11.9686 2.5 11.8385 2.5 11.7072C2.5 11.5758 2.52587 11.4458 2.57614 11.3245C2.62641 11.2031 2.70009 11.0929 2.79297 11L11.5005 2.29312C11.5933 2.20024 11.7036 2.12656 11.8249 2.07629C11.9463 2.02602 12.0763 2.00015 12.2077 2.00015C12.339 2.00015 12.4691 2.02602 12.5904 2.07629C12.7117 2.12656 12.822 2.20024 12.9148 2.29312L14.2073 3.58562C14.3002 3.67849 14.3739 3.78874 14.4242 3.91008C14.4745 4.03142 14.5003 4.16147 14.5003 4.29281C14.5003 4.42415 14.4745 4.55421 14.4242 4.67555C14.3739 4.79689 14.3002 4.90714 14.2073 5ZM13.5005 4.29313L12.2073 3L10.2073 5L11.5005 6.29313L13.5005 4.29313Z" fill="#FCFBFC"/>
</svg>
