<svg width="17" height="16" viewBox="0 0 17 16" fill="none" xmlns="http://www.w3.org/2000/svg">
<path d="M15.5 7.5C15.5 7.63261 15.4473 7.75979 15.3536 7.85355C15.2598 7.94732 15.1326 8 15 8H13V10H13.5C13.7652 10 14.0196 10.1054 14.2071 10.2929C14.3946 10.4804 14.5 10.7348 14.5 11V13C14.5 13.2652 14.3946 13.5196 14.2071 13.7071C14.0196 13.8946 13.7652 14 13.5 14H11.5C11.2348 14 10.9804 13.8946 10.7929 13.7071C10.6054 13.5196 10.5 13.2652 10.5 13V11C10.5 10.7348 10.6054 10.4804 10.7929 10.2929C10.9804 10.1054 11.2348 10 11.5 10H12V8H5V10H5.5C5.76522 10 6.01957 10.1054 6.20711 10.2929C6.39464 10.4804 6.5 10.7348 6.5 11V13C6.5 13.2652 6.39464 13.5196 6.20711 13.7071C6.01957 13.8946 5.76522 14 5.5 14H3.5C3.23478 14 2.98043 13.8946 2.79289 13.7071C2.60536 13.5196 2.5 13.2652 2.5 13V11C2.5 10.7348 2.60536 10.4804 2.79289 10.2929C2.98043 10.1054 3.23478 10 3.5 10H4V8H2C1.86739 8 1.74021 7.94732 1.64645 7.85355C1.55268 7.75979 1.5 7.63261 1.5 7.5C1.5 7.36739 1.55268 7.24021 1.64645 7.14645C1.74021 7.05268 1.86739 7 2 7H8V5.5H7.5C7.23478 5.5 6.98043 5.39464 6.79289 5.20711C6.60536 5.01957 6.5 4.76522 6.5 4.5V2.5C6.5 2.23478 6.60536 1.98043 6.79289 1.79289C6.98043 1.60536 7.23478 1.5 7.5 1.5H9.5C9.76522 1.5 10.0196 1.60536 10.2071 1.79289C10.3946 1.98043 10.5 2.23478 10.5 2.5V4.5C10.5 4.76522 10.3946 5.01957 10.2071 5.20711C10.0196 5.39464 9.76522 5.5 9.5 5.5H9V7H15C15.1326 7 15.2598 7.05268 15.3536 7.14645C15.4473 7.24021 15.5 7.36739 15.5 7.5Z" fill="#FCFBFC"/>
</svg>
