<svg width="28" height="28" viewBox="0 0 28 28" fill="none" xmlns="http://www.w3.org/2000/svg">
<path d="M21.6703 22.1867C21.7776 22.3143 21.8462 22.4699 21.8681 22.6352C21.89 22.8005 21.8642 22.9686 21.7937 23.1197C21.7233 23.2708 21.6111 23.3987 21.4705 23.4882C21.3298 23.5777 21.1665 23.6252 20.9998 23.625H2.62479C2.45816 23.625 2.295 23.5774 2.1545 23.4877C2.014 23.3981 1.90202 23.2703 1.83171 23.1192C1.76139 22.9681 1.73569 22.8001 1.7576 22.6349C1.77952 22.4697 1.84815 22.3142 1.95542 22.1867C3.58948 20.242 5.62167 18.8606 7.88026 18.1213C6.50859 17.2669 5.45249 15.9891 4.87172 14.4811C4.29096 12.9731 4.21713 11.317 4.66141 9.76332C5.10569 8.20963 6.04391 6.84291 7.33412 5.86992C8.62433 4.89694 10.1963 4.37064 11.8123 4.37064C13.4283 4.37064 15.0003 4.89694 16.2905 5.86992C17.5807 6.84291 18.5189 8.20963 18.9632 9.76332C19.4075 11.317 19.3336 12.9731 18.7529 14.4811C18.1721 15.9891 17.116 17.2669 15.7443 18.1213C18.0029 18.8606 20.0351 20.242 21.6703 22.1867ZM21.5314 6.71454C21.4256 6.75962 21.3298 6.82509 21.2494 6.90721C21.169 6.98933 21.1055 7.08649 21.0627 7.19314C21.0198 7.29979 20.9984 7.41384 20.9996 7.52877C21.0008 7.6437 21.0247 7.75727 21.0698 7.86298C21.601 9.11195 21.8748 10.4553 21.8748 11.8125C21.8748 13.1698 21.601 14.5131 21.0698 15.762C20.9786 15.9755 20.9759 16.2165 21.0623 16.432C21.1488 16.6475 21.3173 16.8198 21.5308 16.911C21.7443 17.0023 21.9853 17.0049 22.2008 16.9185C22.4163 16.832 22.5886 16.6635 22.6798 16.45C23.3034 14.9834 23.6248 13.4062 23.6248 11.8125C23.6248 10.2189 23.3034 8.64159 22.6798 7.17501C22.5885 6.96167 22.4163 6.79331 22.2009 6.70696C21.9856 6.62061 21.7447 6.62334 21.5314 6.71454ZM25.89 5.78048C25.847 5.67157 25.7827 5.57239 25.7007 5.48881C25.6187 5.40522 25.5208 5.33893 25.4128 5.29387C25.3047 5.2488 25.1887 5.22587 25.0717 5.22644C24.9546 5.22701 24.8389 5.25107 24.7313 5.29718C24.6237 5.3433 24.5264 5.41053 24.4453 5.49491C24.3641 5.57929 24.3007 5.67909 24.2588 5.78841C24.217 5.89773 24.1975 6.01434 24.2015 6.13134C24.2055 6.24833 24.2329 6.36334 24.2821 6.46954C25.0031 8.15857 25.3748 9.97604 25.3748 11.8125C25.3748 13.649 25.0031 15.4665 24.2821 17.1555C24.2329 17.2617 24.2055 17.3767 24.2015 17.4937C24.1975 17.6107 24.217 17.7273 24.2588 17.8366C24.3007 17.9459 24.3641 18.0457 24.4453 18.1301C24.5264 18.2145 24.6237 18.2817 24.7313 18.3278C24.8389 18.374 24.9546 18.398 25.0717 18.3986C25.1887 18.3991 25.3047 18.3762 25.4128 18.3312C25.5208 18.2861 25.6187 18.2198 25.7007 18.1362C25.7827 18.0526 25.847 17.9534 25.89 17.8445C26.7048 15.9379 27.1248 13.886 27.1248 11.8125C27.1248 9.73907 26.7048 7.68711 25.89 5.78048Z" fill="#966A0D"/>
</svg>
