<svg width="16" height="16" viewBox="0 0 16 16" fill="none" xmlns="http://www.w3.org/2000/svg">
<path d="M6.01657 2.31244C5.98408 2.18441 6.00357 2.04873 6.07079 1.93502C6.13801 1.82131 6.24749 1.73882 6.37532 1.70557C7.44121 1.43066 8.55943 1.43066 9.62532 1.70557C9.74338 1.73579 9.84634 1.8081 9.91484 1.90889C9.98334 2.00969 10.0127 2.13203 9.99732 2.25293C9.98197 2.37383 9.92299 2.48496 9.83147 2.56543C9.73995 2.6459 9.62219 2.69018 9.50032 2.68994C9.45814 2.68972 9.41615 2.68426 9.37532 2.67369C8.47344 2.44083 7.5272 2.44083 6.62532 2.67369C6.56163 2.69002 6.49534 2.69362 6.43025 2.68429C6.36517 2.67496 6.30256 2.65289 6.24601 2.61934C6.18947 2.58578 6.1401 2.5414 6.10073 2.48874C6.06136 2.43608 6.03276 2.37617 6.01657 2.31244ZM2.0847 6.87494C2.14798 6.89252 2.2141 6.89746 2.27929 6.88947C2.34448 6.88149 2.40746 6.86074 2.46463 6.82841C2.5218 6.79608 2.57204 6.75281 2.61248 6.70106C2.65292 6.64931 2.68277 6.5901 2.70032 6.52682C2.94974 5.62967 3.42285 4.81054 4.07532 4.14619C4.16232 4.05053 4.20887 3.92488 4.20521 3.79562C4.20154 3.66636 4.14794 3.54355 4.05566 3.45297C3.96338 3.36239 3.8396 3.31108 3.7103 3.30982C3.58099 3.30855 3.45623 3.35743 3.3622 3.44619C2.59135 4.23114 2.03224 5.19883 1.7372 6.25869C1.71951 6.32197 1.71448 6.38812 1.72238 6.45335C1.73027 6.51857 1.75095 6.58161 1.78322 6.63884C1.8155 6.69607 1.85873 6.74638 1.91046 6.78689C1.96219 6.82741 2.0214 6.85733 2.0847 6.87494ZM13.2997 6.52744C13.3352 6.65524 13.42 6.76372 13.5354 6.829C13.6509 6.89429 13.7875 6.91104 13.9153 6.87557C14.0431 6.84009 14.1516 6.75531 14.2169 6.63985C14.2822 6.5244 14.2989 6.38774 14.2634 6.25994C13.9685 5.20003 13.4094 4.23231 12.6384 3.44744C12.5924 3.40062 12.5376 3.36332 12.4771 3.33768C12.4167 3.31204 12.3517 3.29856 12.2861 3.29801C12.2204 3.29746 12.1553 3.30985 12.0944 3.33447C12.0335 3.35909 11.9781 3.39546 11.9313 3.4415C11.8844 3.48755 11.8471 3.54237 11.8215 3.60282C11.7959 3.66328 11.7824 3.7282 11.7818 3.79387C11.7813 3.85954 11.7937 3.92467 11.8183 3.98555C11.8429 4.04643 11.8793 4.10187 11.9253 4.14869C12.5774 4.81276 13.0503 5.63143 13.2997 6.52807V6.52744ZM13.9166 9.12494C13.8532 9.10738 13.7871 9.10246 13.7219 9.11049C13.6566 9.11851 13.5936 9.13931 13.5365 9.1717C13.4793 9.20409 13.4291 9.24744 13.3886 9.29925C13.3482 9.35107 13.3184 9.41035 13.3009 9.47369C13.0768 10.2806 12.6705 11.0253 12.1134 11.6506C11.7489 11.1233 11.2861 10.6713 10.7503 10.3193C10.7048 10.2891 10.6506 10.2747 10.5961 10.2782C10.5416 10.2817 10.4897 10.3029 10.4484 10.3387C9.76912 10.9265 8.90083 11.25 8.00251 11.25C7.10418 11.25 6.2359 10.9265 5.55657 10.3387C5.51523 10.3028 5.46324 10.2814 5.40859 10.2779C5.35394 10.2744 5.29965 10.289 5.25407 10.3193C4.71487 10.6665 4.24795 11.1147 3.87907 11.6393C3.32729 11.0158 2.92482 10.2747 2.7022 9.47244C2.66672 9.34464 2.58193 9.23616 2.46648 9.17088C2.35103 9.10559 2.21437 9.08884 2.08657 9.12432C1.95877 9.15979 1.85029 9.24458 1.78501 9.36003C1.71972 9.47548 1.70297 9.61214 1.73845 9.73994C2.1206 11.1075 2.93976 12.3124 4.07087 13.1707C5.20198 14.0291 6.5829 14.4937 8.00282 14.4937C9.42274 14.4937 10.8037 14.0291 11.9348 13.1707C13.0659 12.3124 13.885 11.1075 14.2672 9.73994C14.2846 9.67654 14.2894 9.61032 14.2812 9.54507C14.273 9.47982 14.252 9.41683 14.2195 9.35971C14.1869 9.30258 14.1434 9.25244 14.0914 9.21215C14.0394 9.17187 13.98 9.14223 13.9166 9.12494ZM8.00032 10.2499C8.54422 10.2499 9.0759 10.0887 9.52814 9.78648C9.98037 9.48431 10.3328 9.05482 10.541 8.55232C10.7491 8.04982 10.8036 7.49689 10.6975 6.96344C10.5914 6.43 10.3295 5.93999 9.94486 5.5554C9.56027 5.1708 9.07027 4.90889 8.53682 4.80278C8.00337 4.69667 7.45044 4.75113 6.94794 4.95927C6.44544 5.16741 6.01595 5.51989 5.71378 5.97212C5.41161 6.42436 5.25032 6.95604 5.25032 7.49994C5.25115 8.22903 5.54114 8.92803 6.05669 9.44357C6.57224 9.95912 7.27123 10.2491 8.00032 10.2499Z" fill="#FCFBFC"/>
</svg>
