<svg width="28" height="28" viewBox="0 0 28 28" fill="none" xmlns="http://www.w3.org/2000/svg">
<path d="M7.01338 16.1656C7.01635 16.2249 7.00723 16.2842 6.98657 16.3398C6.96592 16.3954 6.93416 16.4463 6.89324 16.4892C6.85231 16.5322 6.80307 16.5664 6.74852 16.5897C6.69396 16.6131 6.63522 16.6251 6.57588 16.625H1.75026C1.55276 16.6253 1.36098 16.5588 1.20609 16.4363C1.05119 16.3137 0.942307 16.1424 0.897131 15.9502C0.869001 15.8186 0.870298 15.6824 0.900929 15.5514C0.93156 15.4203 0.990768 15.2977 1.07432 15.1922C1.8463 14.1684 2.87057 13.3623 4.04713 12.8527C3.53058 12.3817 3.1344 11.7938 2.89178 11.1383C2.64915 10.4827 2.56714 9.77853 2.65261 9.08476C2.73809 8.39098 2.98856 7.72779 3.38305 7.15071C3.77754 6.57364 4.30456 6.0995 4.91998 5.76799C5.53539 5.43649 6.22128 5.25727 6.9202 5.24536C7.61912 5.23344 8.31072 5.38917 8.93708 5.6995C9.56344 6.00984 10.1063 6.46574 10.5203 7.02903C10.9342 7.59231 11.2071 8.24659 11.3162 8.93705C11.3303 9.0299 11.3136 9.1248 11.2688 9.20733C11.224 9.28986 11.1535 9.35549 11.0679 9.39423C9.85428 9.9553 8.82645 10.8518 8.10571 11.978C7.38498 13.1041 7.00141 14.413 7.00026 15.75C7.00026 15.89 7.00026 16.0278 7.01338 16.1656ZM26.9196 15.1911C26.1494 14.1685 25.1275 13.3629 23.9534 12.8527C24.4699 12.3817 24.8661 11.7938 25.1087 11.1383C25.3514 10.4827 25.4334 9.77853 25.3479 9.08476C25.2624 8.39098 25.012 7.72779 24.6175 7.15071C24.223 6.57364 23.696 6.0995 23.0805 5.76799C22.4651 5.43649 21.7792 5.25727 21.0803 5.24536C20.3814 5.23344 19.6898 5.38917 19.0634 5.6995C18.4371 6.00984 17.8942 6.46574 17.4803 7.02903C17.0663 7.59231 16.7934 8.24659 16.6843 8.93705C16.6702 9.0299 16.6869 9.1248 16.7317 9.20733C16.7765 9.28986 16.8471 9.35549 16.9326 9.39423C18.1462 9.9553 19.1741 10.8518 19.8948 11.978C20.6155 13.1041 20.9991 14.413 21.0003 15.75C21.0003 15.89 21.0003 16.0278 20.9871 16.1656C20.9842 16.2249 20.9933 16.2842 21.0139 16.3398C21.0346 16.3954 21.0663 16.4463 21.1073 16.4892C21.1482 16.5322 21.1974 16.5664 21.252 16.5897C21.3066 16.6131 21.3653 16.6251 21.4246 16.625H26.2503C26.4477 16.6253 26.6395 16.5588 26.7944 16.4363C26.9493 16.3137 27.0582 16.1424 27.1034 15.9502C27.1317 15.8183 27.1304 15.6819 27.0995 15.5506C27.0687 15.4193 27.0091 15.2966 26.9251 15.1911H26.9196ZM17.1853 19.9139C18.0565 19.2467 18.6967 18.3232 19.016 17.2733C19.3353 16.2235 19.3176 15.0999 18.9653 14.0606C18.6131 13.0213 17.944 12.1185 17.0522 11.4791C16.1603 10.8397 15.0905 10.4958 13.9931 10.4958C12.8958 10.4958 11.826 10.8397 10.9341 11.4791C10.0423 12.1185 9.37323 13.0213 9.02098 14.0606C8.66872 15.0999 8.65099 16.2235 8.97028 17.2733C9.28956 18.3232 9.92981 19.2467 10.801 19.9139C9.25506 20.5838 7.96414 21.731 7.11729 23.1875C7.04048 23.3205 7.00005 23.4715 7.00006 23.6251C7.00007 23.7787 7.04052 23.9296 7.11734 24.0626C7.19416 24.1956 7.30464 24.3061 7.43769 24.3829C7.57073 24.4596 7.72164 24.5 7.87526 24.5H20.1253C20.2789 24.5 20.4298 24.4596 20.5628 24.3829C20.6959 24.3061 20.8064 24.1956 20.8832 24.0626C20.96 23.9296 21.0004 23.7787 21.0005 23.6251C21.0005 23.4715 20.96 23.3205 20.8832 23.1875C20.0346 21.73 18.7412 20.5827 17.1929 19.9139H17.1853Z" fill="#966A0D"/>
</svg>
